<svg width="19" height="18" viewBox="0 0 19 18" fill="none" xmlns="http://www.w3.org/2000/svg">
<path d="M9.06201 13.5H10.062V8H9.06201V13.5ZM9.56201 6.577C9.73668 6.577 9.88268 6.518 10 6.4C10.118 6.282 10.177 6.136 10.177 5.962C10.177 5.78733 10.118 5.641 10 5.523C9.88268 5.405 9.73668 5.346 9.56201 5.346C9.38735 5.346 9.24135 5.405 9.12401 5.523C9.00601 5.641 8.94701 5.78733 8.94701 5.962C8.94701 6.136 9.00601 6.282 9.12401 6.4C9.24135 6.518 9.38735 6.577 9.56201 6.577ZM9.56501 18C8.32101 18 7.15101 17.764 6.05501 17.292C4.95968 16.8193 4.00668 16.178 3.19601 15.368C2.38534 14.5587 1.74368 13.6067 1.27101 12.512C0.798345 11.4173 0.562012 10.2477 0.562012 9.003C0.562012 7.759 0.798012 6.589 1.27001 5.493C1.74268 4.39767 2.38401 3.44467 3.19401 2.634C4.00335 1.82333 4.95535 1.18167 6.05001 0.709C7.14468 0.236333 8.31434 0 9.55901 0C10.803 0 11.973 0.236 13.069 0.708C14.1643 1.18067 15.1173 1.822 15.928 2.632C16.7387 3.44133 17.3803 4.39333 17.853 5.488C18.3257 6.58267 18.562 7.75233 18.562 8.997C18.562 10.241 18.326 11.411 17.854 12.507C17.3813 13.6023 16.74 14.5553 15.93 15.366C15.1207 16.1767 14.1687 16.8183 13.074 17.291C11.9793 17.7637 10.8097 18 9.56501 18Z" fill="black"/>
</svg>
