<svg width="15" height="14" viewBox="0 0 15 14" fill="none" xmlns="http://www.w3.org/2000/svg">
<path fill-rule="evenodd" clip-rule="evenodd" d="M14.0657 1.68241C14.1477 1.60056 14.2127 1.50337 14.2571 1.39638C14.3015 1.2894 14.3244 1.17472 14.3245 1.05889C14.3245 0.943058 14.3018 0.82835 14.2575 0.721311C14.2133 0.614272 14.1484 0.516998 14.0665 0.435045C13.9847 0.353091 13.8875 0.288062 13.7805 0.243671C13.6735 0.199279 13.5588 0.176395 13.443 0.176323C13.3272 0.176252 13.2124 0.198996 13.1054 0.243256C12.9984 0.287516 12.9011 0.352425 12.8191 0.434278L7.50001 5.75341L2.18241 0.434278C2.0169 0.268765 1.79242 0.175781 1.55834 0.175781C1.32427 0.175781 1.09979 0.268765 0.934278 0.434278C0.768765 0.599791 0.675781 0.824274 0.675781 1.05834C0.675781 1.29242 0.768765 1.5169 0.934278 1.68241L6.25341 7.00001L0.934278 12.3176C0.852324 12.3996 0.787315 12.4969 0.742962 12.6039C0.698609 12.711 0.675781 12.8258 0.675781 12.9417C0.675781 13.0576 0.698609 13.1723 0.742962 13.2794C0.787315 13.3865 0.852324 13.4838 0.934278 13.5657C1.09979 13.7313 1.32427 13.8242 1.55834 13.8242C1.67424 13.8242 1.78901 13.8014 1.89609 13.7571C2.00316 13.7127 2.10046 13.6477 2.18241 13.5657L7.50001 8.24661L12.8191 13.5657C12.9847 13.7311 13.2091 13.8238 13.443 13.8237C13.6769 13.8236 13.9012 13.7305 14.0665 13.565C14.2318 13.3995 14.3246 13.1751 14.3245 12.9411C14.3243 12.7072 14.2313 12.4829 14.0657 12.3176L8.74661 7.00001L14.0657 1.68241Z" fill="#303437"/>
</svg>
