<svg width="32" height="32" viewBox="0 0 32 32" fill="none" xmlns="http://www.w3.org/2000/svg">
<rect width="32" height="32" rx="8" fill="#97144D"/>
<path fill-rule="evenodd" clip-rule="evenodd" d="M18 10H17V8H16V10H15C13.4087 10 11.8826 10.6321 10.7574 11.7574C9.63214 12.8826 9 14.4087 9 16C9 17.5913 9.63214 19.1174 10.7574 20.2426C11.8826 21.3679 13.4087 22 15 22H18C18.13 22 18.26 21.996 18.389 21.987L22.379 22.985C22.4627 23.0058 22.5504 23.0047 22.6335 22.9816C22.7166 22.9585 22.7924 22.9144 22.8534 22.8534C22.9144 22.7924 22.9585 22.7166 22.9816 22.6335C23.0047 22.5504 23.0058 22.4627 22.985 22.379L22.408 20.07C23.1991 19.2131 23.7233 18.1442 23.9166 16.994C24.1098 15.8439 23.9636 14.6624 23.4959 13.594C23.0283 12.5256 22.2594 11.6167 21.2833 10.9784C20.3072 10.3401 19.1663 10.0001 18 10ZM14 14.5C14 13.837 14.2634 13.2011 14.7322 12.7322C15.2011 12.2634 15.837 12 16.5 12C17.163 12 17.7989 12.2634 18.2678 12.7322C18.7366 13.2011 19 13.837 19 14.5C19 15.163 18.7366 15.7989 18.2678 16.2678C17.7989 16.7366 17.163 17 16.5 17C15.837 17 15.2011 16.7366 14.7322 16.2678C14.2634 15.7989 14 15.163 14 14.5ZM16.5 20C15.4772 20.0015 14.4846 19.6533 13.687 19.013L14.313 18.233C14.912 18.713 15.672 19 16.5 19C17.328 19 18.088 18.713 18.687 18.233L19.313 19.013C18.5154 19.6533 17.5228 20.0015 16.5 20Z" fill="white"/>
<path d="M16.5 13C16.1022 13 15.7206 13.158 15.4393 13.4393C15.158 13.7206 15 14.1022 15 14.5C15 14.8978 15.158 15.2794 15.4393 15.5607C15.7206 15.842 16.1022 16 16.5 16C16.8978 16 17.2794 15.842 17.5607 15.5607C17.842 15.2794 18 14.8978 18 14.5C18 14.1022 17.842 13.7206 17.5607 13.4393C17.2794 13.158 16.8978 13 16.5 13Z" fill="white"/>
</svg>
