<svg width="44" height="44" viewBox="0 0 44 44" fill="none" xmlns="http://www.w3.org/2000/svg">
<rect y="1" width="42" height="42" rx="2" fill="white"/>
<g clip-path="url(#clip0_15_774)">
<path d="M21.5 18.3333C20.9165 18.3333 20.3569 18.5651 19.9444 18.9777C19.5318 19.3903 19.3 19.9499 19.3 20.5333C19.3 21.1168 19.5318 21.6764 19.9444 22.089C20.3569 22.5016 20.9165 22.7333 21.5 22.7333C22.0835 22.7333 22.643 22.5016 23.0556 22.089C23.4682 21.6764 23.7 21.1168 23.7 20.5333C23.7 19.9499 23.4682 19.3903 23.0556 18.9777C22.643 18.5651 22.0835 18.3333 21.5 18.3333Z" fill="#6B254B"/>
<path fill-rule="evenodd" clip-rule="evenodd" d="M23.7 13.9333H22.2333V11H20.7667V13.9333H19.3C16.9661 13.9333 14.7278 14.8605 13.0775 16.5108C11.4271 18.1611 10.5 20.3994 10.5 22.7333C10.5 25.0672 11.4271 27.3056 13.0775 28.9559C14.7278 30.6062 16.9661 31.5333 19.3 31.5333H23.7C23.8907 31.5333 24.0813 31.5275 24.2705 31.5143L30.1225 32.978C30.2453 33.0086 30.3739 33.0069 30.4958 32.973C30.6177 32.9392 30.7288 32.8744 30.8183 32.7849C30.9077 32.6955 30.9725 32.5844 31.0064 32.4625C31.0402 32.3406 31.0419 32.212 31.0113 32.0892L30.1651 28.7027C31.3254 27.4459 32.0942 25.8781 32.3776 24.1913C32.661 22.5044 32.4466 20.7715 31.7607 19.2045C31.0748 17.6376 29.9471 16.3045 28.5155 15.3683C27.0839 14.4321 25.4105 13.9335 23.7 13.9333ZM17.8333 20.5333C17.8333 19.5609 18.2196 18.6282 18.9073 17.9406C19.5949 17.253 20.5275 16.8667 21.5 16.8667C22.4725 16.8667 23.4051 17.253 24.0927 17.9406C24.7804 18.6282 25.1667 19.5609 25.1667 20.5333C25.1667 21.5058 24.7804 22.4384 24.0927 23.1261C23.4051 23.8137 22.4725 24.2 21.5 24.2C20.5275 24.2 19.5949 23.8137 18.9073 23.1261C18.2196 22.4384 17.8333 21.5058 17.8333 20.5333ZM21.5 28.6C19.9999 28.6022 18.5441 28.0914 17.3743 27.1524L18.2924 26.0084C19.1709 26.7124 20.2856 27.1333 21.5 27.1333C22.7144 27.1333 23.8291 26.7124 24.7076 26.0084L25.6257 27.1524C24.4559 28.0914 23.0001 28.6022 21.5 28.6Z" fill="#6B254B"/>
</g>
<defs>
<clipPath id="clip0_15_774">
<rect width="22" height="22" fill="white" transform="translate(10.5 11)"/>
</clipPath>
</defs>
</svg>
